<svg width="129" height="129" viewBox="0 0 129 129" fill="none" xmlns="http://www.w3.org/2000/svg">
<path d="M35.7697 3.63769C25.0158 3.64223 14.9135 6.46713 10.2514 11.4954C2.52849 19.8244 10.5633 33.3624 4.52698 53.8394C2.35691 61.2014 23.2164 78.5141 35.3126 92.0417C34.5791 90.0474 34.4774 87.8756 35.0214 85.8215V85.6482L35.1398 85.2861C39.5626 71.8303 38.3366 64.7036 34.8248 53.7131C33.5162 49.6189 33.7606 45.7187 35.2733 42.4226C36.7861 39.1266 39.4557 36.4821 42.7374 34.4072C49.3008 30.2575 58.4077 28.2059 67.5077 27.9431C68.6412 27.9096 69.7753 27.9044 70.9091 27.9275C76.8123 28.0514 82.577 28.9537 87.5143 30.7544C86.055 29.2326 84.4044 27.7 82.6405 26.1638C72.0963 20.0784 43.46 21.5299 30.2267 30.2266C38.5575 19.0837 59.1434 13.5488 76.7196 21.3057C74.6392 19.6773 72.5024 18.065 70.3893 16.4868C60.0307 10.251 31.0821 11.6579 17.755 20.4158C25.8667 9.56665 45.6034 4.02696 62.8622 10.9045C55.6178 5.91283 45.4328 3.63341 35.7697 3.63769ZM69.224 32.6199C68.6962 32.6214 68.1701 32.6284 67.6417 32.6438C59.1837 32.8882 50.7155 34.9403 45.257 38.3914C42.5278 40.1167 40.5774 42.1414 39.5487 44.3828C38.5195 46.6247 38.3033 49.123 39.3119 52.2803C42.8871 63.467 44.2381 72.3735 39.7294 86.3494V86.404L39.6115 86.7585C39.2847 87.7512 39.3084 89.7563 40.0675 91.1602C40.8274 92.5635 42.0075 93.6477 45.0436 93.6477C46.8828 93.6477 49.3235 93.6427 51.5868 93.6401C57.0884 89.4761 63.5168 84.7757 68.3102 81.05C70.8599 79.0687 74.0482 78.6262 76.9081 78.7039C79.7677 78.782 82.3019 79.3675 84.1046 80.2314C89.0736 82.6109 93.4463 84.1707 97.962 85.302C97.926 85.0576 97.8764 84.8467 97.8202 84.6797C93.733 72.5925 91.7456 61.9082 95.7023 49.9812C96.7302 46.8827 96.5161 44.5279 95.5289 42.4619C94.5418 40.3964 92.6526 38.5491 89.9545 37.0215C85.2329 34.349 78.1656 32.8139 70.806 32.636C70.2787 32.6238 69.7512 32.6187 69.2238 32.6209L69.224 32.6199ZM76.3654 83.4043C76.2268 83.4043 76.0923 83.4081 75.9559 83.4126C74.0482 83.4746 72.2666 83.9379 71.2001 84.7668C65.06 89.5388 56.4364 95.7797 50.4694 100.435C49.2928 101.353 48.9113 102.079 48.8156 102.458C48.7198 102.839 48.7536 103.004 49.0204 103.38C49.5535 104.132 51.487 105.134 53.4059 105.12C67.1938 105.018 77.9436 108.319 87.0177 112.686C91.9383 115.054 97.9646 115.136 103.828 113.71C109.691 112.284 115.327 109.348 119.205 106.104C123.083 102.859 124.831 99.3993 124.512 97.553C124.352 96.6298 123.861 95.7918 122.307 94.8682C120.752 93.945 118.134 93.1007 114.323 92.6875C101.879 91.3388 93.1709 89.7895 82.0731 84.4753C81.2346 84.0737 78.9882 83.4726 76.7821 83.4129C76.6431 83.4085 76.504 83.4058 76.3649 83.4048L76.3654 83.4043ZM125.811 106.206C124.775 107.426 123.558 108.598 122.228 109.71C117.72 113.483 111.562 116.675 104.946 118.284C98.3309 119.893 91.1946 119.921 84.9789 116.93C76.3712 112.787 66.4729 109.732 53.4457 109.828C51.4401 109.843 49.4704 109.402 47.8239 108.466C48.3051 112.563 50.7677 116.066 55.2172 116.032C68.1227 115.934 75.7068 119.104 84.9005 122.465C99.3576 127.751 125.811 119.544 125.811 110.088V106.206V106.206Z" fill="#4D4D4D"/>
</svg>
